<svg xmlns="http://www.w3.org/2000/svg"
     class="theme-thumb" viewBox="0 0 100 70">
  <!-- Header -->
  <rect class="theme-thumb__header" width="100" height="20" shape-rendering="crispEdges" />
  <rect class="theme-thumb__search" x="4" y="4" width="80" height="12" rx="1px" ry="1px" />

  <!-- Samples -->
  <rect class="theme-thumb__sample-container" y="20" width="100" height="50" shape-rendering="crispEdges" />
  <g transform="translate(4 24)">
    <rect class="theme-thumb__sample" width="29" height="12" rx="1px" ry="1px" />
    <text class="theme-thumb__sample-text" font-size="8" x="14.5" y="6" text-anchor="middle" dominant-baseline="middle">never</text>
  </g>
  <g transform="translate(37 24)">
    <rect class="theme-thumb__sample" width="31" height="12" rx="1px" ry="1px" />
    <text class="theme-thumb__sample-text" font-size="8" x="15.5" y="6" text-anchor="middle" dominant-baseline="middle">gonna</text>
  </g>
  <g transform="translate(72 24)">
    <rect class="theme-thumb__sample" width="24" height="12" rx="1px" ry="1px" />
    <text class="theme-thumb__sample-text" font-size="8" x="12" y="6" text-anchor="middle" dominant-baseline="middle">give</text>
  </g>
  <g transform="translate(4 40)">
    <rect class="theme-thumb__sample" width="18" height="12" rx="1px" ry="1px" />
    <text class="theme-thumb__sample-text" font-size="8" x="9" y="6" text-anchor="middle" dominant-baseline="middle">you</text>
  </g>
  <g transform="translate(26 40)">
    <rect class="theme-thumb__sample" width="13" height="12" rx="1px" ry="1px" />
    <text class="theme-thumb__sample-text" font-size="8" x="6.5" y="6" text-anchor="middle" dominant-baseline="middle">up</text>
  </g>
  <g transform="translate(43 40)">
    <rect class="theme-thumb__sample" width="14" height="12" rx="1px" ry="1px" />
    <text class="theme-thumb__sample-text" font-size="8" x="7" y="6" text-anchor="middle" dominant-baseline="middle">let</text>
  </g>
  <g transform="translate(61 40)">
    <rect class="theme-thumb__sample" width="24" height="12" rx="1px" ry="1px" />
    <text class="theme-thumb__sample-text" font-size="8" x="12" y="6" text-anchor="middle" dominant-baseline="middle">down</text>
  </g>
</svg>
